<svg xmlns="http://www.w3.org/2000/svg" viewBox="-810.3 -1630.0 11480.7 1778.0" role="img" aria-label="ritornello wordmark">
<style>.bar{fill:#ECEDEF}.dot{fill:#E4556A}</style>
<g transform="scale(1,-1)">
<rect x="-690.3" y="161.0" width="145.0" height="1160.0" rx="24.2" class="bar"/>
<rect x="-448.7" y="161.0" width="48.3" height="1160.0" rx="24.2" class="bar"/>
<circle cx="-279.5" cy="918.2" r="88.6" class="dot"/>
<circle cx="-279.5" cy="563.8" r="88.6" class="dot"/>
<circle cx="10139.5" cy="918.2" r="88.6" class="dot"/>
<circle cx="10139.5" cy="563.8" r="88.6" class="dot"/>
<rect x="10260.3" y="161.0" width="48.3" height="1160.0" rx="24.2" class="bar"/>
<rect x="10405.3" y="161.0" width="145.0" height="1160.0" rx="24.2" class="bar"/>
<path transform="translate(0.0 0)" d="M533 546Q533 698 573.0 797.0Q613 896 679.0 944.0Q745 992 824 992Q930 992 986.0 928.5Q1042 865 1042 738Q1042 608 989.5 546.0Q937 484 853 484Q768 484 726.0 527.5Q684 571 684 648V690Q683 715 672.5 729.0Q662 743 640 743Q620 743 604.5 725.0Q589 707 580.0 667.5Q571 628 571 561ZM544 904 571 692V206Q571 172 581.0 157.5Q591 143 626 136L703 121Q732 115 746.0 100.5Q760 86 760 60Q760 31 741.0 15.5Q722 0 684 0H132Q92 0 74.5 15.5Q57 31 57 59Q57 78 67.0 93.0Q77 108 99 117L122 127Q137 134 143.0 150.5Q149 167 149 206V679Q149 710 140.5 723.5Q132 737 115 742L93 748Q72 755 62.5 768.0Q53 781 53 800Q53 824 66.5 838.0Q80 852 114 865L333 949Q403 976 433.0 984.0Q463 992 480 992Q508 992 522.5 972.0Q537 952 544 904Z" class="bar"/>
<path transform="translate(1035.0 0)" d="M571 904V206Q571 167 577.0 150.5Q583 134 598 127L620 117Q643 108 653.0 93.0Q663 78 663 59Q663 31 645.0 15.5Q627 0 588 0H131Q92 0 74.5 15.5Q57 31 57 59Q57 78 67.0 93.0Q77 108 99 117L122 127Q137 134 143.0 150.5Q149 167 149 206V683Q149 714 140.5 727.0Q132 740 115 745L93 752Q72 759 62.5 771.5Q53 784 53 804Q53 827 66.0 841.0Q79 855 114 868L340 955Q393 975 423.5 983.5Q454 992 477 992Q524 992 547.5 967.0Q571 942 571 904ZM338 1079Q227 1079 162.0 1131.5Q97 1184 97 1273Q97 1362 162.0 1413.5Q227 1465 338 1465Q450 1465 514.5 1413.5Q579 1362 579 1273Q579 1184 514.5 1131.5Q450 1079 338 1079Z" class="bar"/>
<path transform="translate(1705.0 0)" d="M96 835 62 848Q41 857 30.0 870.5Q19 884 19 904Q19 932 38.0 947.0Q57 962 88 962H143Q162 962 178.0 972.0Q194 982 220 1007L386 1173Q418 1206 446.0 1221.5Q474 1237 500 1237Q528 1237 544.5 1218.5Q561 1200 561 1164V362Q561 289 586.0 250.5Q611 212 658 212Q696 212 716.5 231.0Q737 250 749.5 274.0Q762 298 775.5 317.0Q789 336 813 337Q833 338 844.5 324.0Q856 310 856 277Q856 192 807.5 123.0Q759 54 673.5 13.0Q588 -28 479 -28Q316 -28 227.5 50.5Q139 129 139 287V771Q139 799 128.5 812.0Q118 825 96 835ZM416 823V962H780Q810 962 828.5 949.0Q847 936 847 911Q847 874 810.5 848.5Q774 823 691 823Z" class="bar"/>
<path transform="translate(2554.0 0)" d="M628 992Q798 992 924.5 927.5Q1051 863 1121.0 747.5Q1191 632 1191 478Q1191 336 1117.5 221.5Q1044 107 914.0 39.5Q784 -28 612 -28Q443 -28 316.5 37.5Q190 103 119.5 218.5Q49 334 49 486Q49 631 123.0 745.0Q197 859 327.0 925.5Q457 992 628 992ZM701 114Q739 123 759.0 167.0Q779 211 777.0 295.5Q775 380 747 510Q721 634 688.5 712.5Q656 791 618.5 825.5Q581 860 540 850Q502 841 482.0 797.0Q462 753 464.5 669.0Q467 585 494 454Q520 331 552.5 252.0Q585 173 622.5 139.0Q660 105 701 114Z" class="bar"/>
<path transform="translate(3766.0 0)" d="M533 546Q533 698 573.0 797.0Q613 896 679.0 944.0Q745 992 824 992Q930 992 986.0 928.5Q1042 865 1042 738Q1042 608 989.5 546.0Q937 484 853 484Q768 484 726.0 527.5Q684 571 684 648V690Q683 715 672.5 729.0Q662 743 640 743Q620 743 604.5 725.0Q589 707 580.0 667.5Q571 628 571 561ZM544 904 571 692V206Q571 172 581.0 157.5Q591 143 626 136L703 121Q732 115 746.0 100.5Q760 86 760 60Q760 31 741.0 15.5Q722 0 684 0H132Q92 0 74.5 15.5Q57 31 57 59Q57 78 67.0 93.0Q77 108 99 117L122 127Q137 134 143.0 150.5Q149 167 149 206V679Q149 710 140.5 723.5Q132 737 115 742L93 748Q72 755 62.5 768.0Q53 781 53 800Q53 824 66.5 838.0Q80 852 114 865L333 949Q403 976 433.0 984.0Q463 992 480 992Q508 992 522.5 972.0Q537 952 544 904Z" class="bar"/>
<path transform="translate(4801.0 0)" d="M571 904V206Q571 167 577.0 151.0Q583 135 598 127L618 116Q651 98 651 63Q651 0 576 0H131Q92 0 74.5 15.5Q57 31 57 59Q57 78 67.0 93.0Q77 108 99 117L122 127Q137 134 143.0 150.5Q149 167 149 206V683Q149 714 140.5 727.0Q132 740 115 745L93 752Q72 759 62.5 771.5Q53 784 53 804Q53 827 66.0 841.0Q79 855 114 868L340 955Q390 974 421.0 983.0Q452 992 481 992Q525 992 548.0 967.0Q571 942 571 904ZM535 660 476 723 507 751Q647 881 746.5 936.5Q846 992 930 992Q1059 992 1132.0 904.0Q1205 816 1218 675L1264 206Q1268 167 1272.0 150.5Q1276 134 1290 127L1313 117Q1335 108 1345.0 93.0Q1355 78 1355 59Q1355 31 1337.5 15.5Q1320 0 1281 0H831Q756 0 756 63Q756 98 789 116L809 127Q824 135 832.0 151.0Q840 167 836 206L798 615Q792 679 767.5 710.5Q743 742 693 742Q662 742 629.5 728.5Q597 715 570 692Z" class="bar"/>
<path transform="translate(6137.0 0)" d="M1067 605Q1067 537 1030.0 499.0Q993 461 923 461H330V563H597Q651 563 651 614Q651 742 621.5 797.0Q592 852 545 852Q510 852 482.0 826.0Q454 800 437.5 746.0Q421 692 421 609Q421 426 503.0 341.5Q585 257 727 257Q794 257 848.5 273.0Q903 289 954 336Q982 362 996.5 370.5Q1011 379 1025 379Q1045 379 1054.0 359.5Q1063 340 1063 312Q1063 222 1002.5 144.0Q942 66 835.0 19.0Q728 -28 585 -28Q433 -28 311.5 32.5Q190 93 119.0 201.5Q48 310 48 455Q48 617 113.0 737.5Q178 858 302.0 925.0Q426 992 601 992Q756 992 859.5 942.0Q963 892 1015.0 804.5Q1067 717 1067 605Z" class="bar"/>
<path transform="translate(7223.0 0)" d="M571 1422V206Q571 167 577.0 150.5Q583 134 598 127L621 117Q643 108 653.0 93.0Q663 78 663 59Q663 31 645.5 15.5Q628 0 589 0H132Q93 0 75.0 15.5Q57 31 57 59Q57 78 67.0 93.0Q77 108 100 117L122 127Q137 134 143.0 150.5Q149 167 149 206V1200Q149 1232 140.5 1245.0Q132 1258 115 1263L93 1270Q72 1277 63.0 1289.5Q54 1302 54 1322Q54 1345 66.5 1359.0Q79 1373 114 1386L340 1473Q393 1493 423.5 1501.5Q454 1510 477 1510Q524 1510 547.5 1485.0Q571 1460 571 1422Z" class="bar"/>
<path transform="translate(7894.0 0)" d="M571 1422V206Q571 167 577.0 150.5Q583 134 598 127L621 117Q643 108 653.0 93.0Q663 78 663 59Q663 31 645.5 15.5Q628 0 589 0H132Q93 0 75.0 15.5Q57 31 57 59Q57 78 67.0 93.0Q77 108 100 117L122 127Q137 134 143.0 150.5Q149 167 149 206V1200Q149 1232 140.5 1245.0Q132 1258 115 1263L93 1270Q72 1277 63.0 1289.5Q54 1302 54 1322Q54 1345 66.5 1359.0Q79 1373 114 1386L340 1473Q393 1493 423.5 1501.5Q454 1510 477 1510Q524 1510 547.5 1485.0Q571 1460 571 1422Z" class="bar"/>
<path transform="translate(8565.0 0)" d="M628 992Q798 992 924.5 927.5Q1051 863 1121.0 747.5Q1191 632 1191 478Q1191 336 1117.5 221.5Q1044 107 914.0 39.5Q784 -28 612 -28Q443 -28 316.5 37.5Q190 103 119.5 218.5Q49 334 49 486Q49 631 123.0 745.0Q197 859 327.0 925.5Q457 992 628 992ZM701 114Q739 123 759.0 167.0Q779 211 777.0 295.5Q775 380 747 510Q721 634 688.5 712.5Q656 791 618.5 825.5Q581 860 540 850Q502 841 482.0 797.0Q462 753 464.5 669.0Q467 585 494 454Q520 331 552.5 252.0Q585 173 622.5 139.0Q660 105 701 114Z" class="bar"/>
</g>
</svg>
